<?xml version="1.0" encoding="UTF-8"?>
<svg xmlns="http://www.w3.org/2000/svg" xmlns:xlink="http://www.w3.org/1999/xlink" width="48px" height="48px" viewBox="0 0 48 48" version="1.1">
<g id="surface1">
<path style=" stroke:none;fill-rule:nonzero;fill:rgb(20%,62.7451%,100%);fill-opacity:1;" d="M 20.890625 42.742188 C 20.890625 43.796875 20.035156 44.648438 18.984375 44.648438 C 17.933594 44.648438 17.078125 43.796875 17.078125 42.742188 C 17.078125 41.691406 17.929688 40.839844 18.980469 40.835938 C 20.027344 40.835938 20.882812 41.695312 20.882812 42.746094 M 32.726562 42.742188 C 32.726562 43.796875 31.875 44.648438 30.824219 44.648438 C 29.773438 44.648438 28.917969 43.800781 28.914062 42.746094 C 28.914062 41.695312 29.761719 40.839844 30.8125 40.835938 C 31.863281 40.835938 32.71875 41.695312 32.71875 42.746094 M 41.808594 24.425781 L 41.496094 24.019531 C 41.402344 23.898438 41.304688 23.785156 41.210938 23.667969 C 41.121094 23.546875 41.023438 23.441406 40.929688 23.328125 C 40.71875 23.089844 40.507812 22.851562 40.289062 22.613281 L 40.136719 22.453125 L 39.957031 22.253906 L 39.6875 21.992188 C 39.65625 21.957031 39.621094 21.925781 39.585938 21.886719 C 37.34375 19.660156 34.644531 17.953125 31.675781 16.878906 L 31.214844 16.722656 L 31.285156 16.554688 C 32.105469 14.445312 32.019531 12.089844 31.046875 10.046875 C 30.085938 7.996094 28.320312 6.433594 26.171875 5.726562 C 24.859375 5.292969 23.710938 5.089844 22.746094 5.117188 C 22.679688 4.90625 22.546875 3.960938 23.738281 1.421875 L 21.324219 0 L 20.75 0.796875 C 20.089844 1.707031 19.453125 2.589844 18.859375 3.453125 C 18.207031 2.761719 17.316406 2.347656 16.371094 2.292969 L 13.578125 2.121094 L 13.554688 2.121094 C 13.488281 2.117188 13.414062 2.117188 13.347656 2.117188 C 11.367188 2.117188 9.726562 3.65625 9.609375 5.625 L 9.433594 8.429688 L 9.433594 8.4375 C 9.3125 10.496094 10.882812 12.265625 12.941406 12.394531 L 14.945312 12.515625 C 14.816406 14.195312 15.09375 15.757812 15.757812 17.128906 C 13.011719 18.285156 10.523438 19.972656 8.4375 22.097656 C 1.824219 28.785156 1.824219 36.105469 1.824219 41.988281 L 1.824219 45.539062 L 4.433594 42.765625 C 4.964844 44.625 5.738281 46.378906 6.722656 47.996094 L 10.121094 47.996094 C 8.421875 45.722656 7.273438 43.089844 6.761719 40.300781 L 10.585938 36.238281 L 8.617188 42.421875 L 12.097656 39.886719 C 18.246094 35.417969 25.585938 34.386719 33.914062 36.824219 C 37.527344 37.890625 41.035156 36.90625 42.863281 34.3125 L 43.070312 33.984375 C 43.253906 34.980469 43.351562 35.980469 43.351562 36.976562 C 43.351562 40.101562 42.84375 44.351562 40.59375 48 L 43.816406 48 C 45.367188 44.875 46.179688 41.136719 46.179688 36.976562 C 46.175781 32.574219 44.605469 28.132812 41.808594 24.429688 Z M 17.789062 12.382812 C 18.03125 10.378906 18.941406 8.484375 20.246094 6.445312 C 20.730469 7.40625 21.738281 7.996094 22.8125 7.941406 C 23.246094 7.925781 24.023438 7.992188 25.28125 8.40625 C 26.699219 8.871094 27.863281 9.902344 28.496094 11.257812 C 29.140625 12.617188 29.195312 14.140625 28.652344 15.554688 C 28.316406 16.421875 27.761719 17.183594 27.042969 17.773438 L 26.226562 16.769531 L 26.222656 16.761719 C 25.195312 15.515625 23.355469 15.332031 22.101562 16.351562 C 21.433594 16.890625 21.074219 17.671875 21.035156 18.46875 C 18.632812 17.386719 17.433594 15.183594 17.777344 12.386719 Z M 26.394531 22.605469 L 25.355469 23.453125 L 24.488281 23.121094 L 25.578125 21.613281 L 23.464844 19.015625 C 23.359375 18.886719 23.308594 18.722656 23.328125 18.558594 C 23.34375 18.394531 23.425781 18.246094 23.554688 18.140625 C 23.679688 18.035156 23.84375 17.980469 24.007812 17.996094 C 24.171875 18.011719 24.320312 18.09375 24.425781 18.222656 L 30.351562 25.515625 C 30.488281 25.679688 30.53125 25.90625 30.460938 26.109375 C 30.390625 26.3125 30.222656 26.464844 30.015625 26.515625 L 28.804688 25.574219 L 26.714844 27.285156 L 25.078125 26.054688 L 27.25 23.667969 L 26.398438 22.601562 Z M 15.503906 9.730469 L 13.113281 9.582031 C 12.601562 9.550781 12.214844 9.117188 12.242188 8.605469 L 12.421875 5.804688 C 12.449219 5.316406 12.851562 4.933594 13.34375 4.933594 L 13.390625 4.933594 L 16.195312 5.113281 C 16.4375 5.128906 16.667969 5.238281 16.832031 5.421875 C 16.992188 5.605469 17.074219 5.84375 17.058594 6.089844 L 17.046875 6.292969 C 16.414062 7.382812 15.898438 8.535156 15.5 9.730469 Z M 40.554688 32.695312 C 39.425781 34.304688 37.179688 34.855469 34.707031 34.132812 C 26.933594 31.851562 19.910156 32.324219 13.769531 35.53125 L 17.039062 25.289062 L 6.460938 36.507812 C 6.65625 28.980469 11.363281 22.570312 17.972656 19.882812 C 18.914062 20.628906 20.042969 21.203125 21.320312 21.5625 C 21.640625 21.652344 21.964844 21.710938 22.28125 21.769531 C 21.902344 22.714844 22.0625 23.789062 22.699219 24.585938 L 22.851562 24.765625 C 22.507812 25.664062 22.640625 26.714844 23.292969 27.511719 L 24.242188 28.675781 C 24.773438 29.324219 25.566406 29.703125 26.402344 29.703125 C 27.042969 29.703125 27.671875 29.480469 28.175781 29.074219 L 28.742188 28.609375 C 29.09375 28.757812 29.476562 28.835938 29.875 28.835938 C 30.550781 28.839844 31.207031 28.609375 31.730469 28.183594 C 32.976562 27.164062 33.171875 25.3125 32.148438 24.0625 L 28.808594 19.949219 C 29.097656 19.714844 29.371094 19.460938 29.625 19.191406 C 29.894531 19.261719 30.164062 19.34375 30.425781 19.429688 C 30.957031 19.621094 31.492188 19.824219 32.015625 20.058594 C 34.070312 20.984375 35.949219 22.269531 37.554688 23.851562 C 37.617188 23.910156 37.675781 23.960938 37.726562 24.019531 L 38.066406 24.371094 C 38.144531 24.449219 38.21875 24.527344 38.289062 24.609375 C 38.449219 24.78125 38.609375 24.960938 38.769531 25.144531 L 39.019531 25.445312 C 39.109375 25.550781 39.191406 25.652344 39.28125 25.765625 L 39.507812 26.0625 C 39.589844 26.164062 39.664062 26.269531 39.742188 26.371094 C 41.417969 28.671875 41.714844 31.03125 40.550781 32.6875 L 40.550781 32.695312 Z M 15.4375 8.230469 L 13.765625 8.128906 L 13.871094 6.457031 L 15.539062 6.558594 Z M 15.4375 8.230469 "/>
</g>
</svg>
